<?xml version="1.0" encoding="utf-8"?>
<!-- Generator: Adobe Illustrator 19.0.0, SVG Export Plug-In . SVG Version: 6.00 Build 0)  -->
<svg version="1.1" xmlns="http://www.w3.org/2000/svg" xmlns:xlink="http://www.w3.org/1999/xlink" x="0px" y="0px"
	 viewBox="0 0 762.7 471.9" style="enable-background:new 0 0 762.7 471.9;" xml:space="preserve">
<style type="text/css">
	.st0{fill:#FFF8E9;stroke:#000000;stroke-miterlimit:10;}
	.st1{fill:#7F7373;}
	.st2{fill:#D4F0FF;stroke:#000000;stroke-miterlimit:10;}
	.st3{fill:#EBF7FF;stroke:#000000;stroke-miterlimit:10;}
	.st4{fill:#C09999;stroke:#000000;stroke-width:0.9203;stroke-miterlimit:10;}
	.st5{fill:#FFD4D4;stroke:#000000;stroke-width:0.8876;stroke-miterlimit:10;}
	.st6{fill:#FFD4D4;stroke:#000000;stroke-miterlimit:10;}
	.st7{fill:#C09999;stroke:#000000;stroke-width:0.902;stroke-miterlimit:10;}
	.st8{fill:#FFCC88;stroke:#000000;stroke-width:0.6819;stroke-miterlimit:10;}
	.st9{fill:#FFCC88;stroke:#000000;stroke-width:0.902;stroke-miterlimit:10;}
	.st10{fill:none;stroke:#000000;stroke-miterlimit:10;}
</style>
<g id="step3">
	<path class="st0" d="M626.5,276h-86.6c-12.7,0-23.4,10.4-23.4,23.1v0c0,12.7,10.7,22.9,23.4,22.9h26.6v3c0,6.9-5.6,12.5-12.5,12.5
		v0c8.7,2.7,17.5-3.9,17.5-13V322h55c12.7,0,23-10.2,23-22.9v-0.1C649.5,286.4,639.1,276,626.5,276z"/>
	<g>
		<path class="st1" d="M539.3,294.8h1.2v3.5h4.4v-3.5h1.2v8.5h-1.2v-3.9h-4.4v3.9h-1.2V294.8z"/>
		<path class="st1" d="M548.2,294.8h5.5v1.1h-4.3v2.5h4v1.1h-4v2.7h4.5v1.1h-5.7V294.8z"/>
		<path class="st1" d="M555.5,294.8h1.2v7.4h3.9v1.1h-5.1V294.8z"/>
		<path class="st1" d="M561.8,294.8h1.2v7.4h3.9v1.1h-5.1V294.8z"/>
		<path class="st1" d="M571.9,303.5c-0.6,0-1.2-0.1-1.8-0.3s-1-0.5-1.4-0.9c-0.4-0.4-0.7-0.9-0.9-1.4c-0.2-0.5-0.3-1.1-0.3-1.8
			s0.1-1.2,0.3-1.8c0.2-0.5,0.5-1,0.9-1.4c0.4-0.4,0.9-0.7,1.4-0.9c0.5-0.2,1.1-0.3,1.8-0.3c0.6,0,1.2,0.1,1.8,0.3
			c0.5,0.2,1,0.5,1.4,0.9c0.4,0.4,0.7,0.9,0.9,1.4s0.3,1.1,0.3,1.8s-0.1,1.2-0.3,1.8c-0.2,0.5-0.5,1-0.9,1.4
			c-0.4,0.4-0.9,0.7-1.4,0.9S572.6,303.5,571.9,303.5z M571.9,302.5c0.5,0,0.9-0.1,1.3-0.3c0.4-0.2,0.7-0.4,1-0.7
			c0.3-0.3,0.5-0.7,0.6-1.1c0.2-0.4,0.2-0.9,0.2-1.3s-0.1-0.9-0.2-1.3c-0.2-0.4-0.4-0.8-0.6-1.1c-0.3-0.3-0.6-0.5-1-0.7
			c-0.4-0.2-0.8-0.3-1.3-0.3c-0.5,0-0.9,0.1-1.3,0.3c-0.4,0.2-0.7,0.4-1,0.7s-0.5,0.7-0.6,1.1c-0.2,0.4-0.2,0.8-0.2,1.3
			s0.1,0.9,0.2,1.3c0.2,0.4,0.4,0.8,0.6,1.1c0.3,0.3,0.6,0.5,1,0.7C571,302.4,571.4,302.5,571.9,302.5z"/>
		<path class="st1" d="M580.2,294.8h1.2l1.9,6.8h0l2-6.8h1.3l2,6.8h0l1.9-6.8h1.2l-2.5,8.5h-1.2l-2.1-6.9h0l-2,6.9h-1.2L580.2,294.8
			z"/>
		<path class="st1" d="M596.8,303.5c-0.6,0-1.2-0.1-1.8-0.3s-1-0.5-1.4-0.9c-0.4-0.4-0.7-0.9-0.9-1.4c-0.2-0.5-0.3-1.1-0.3-1.8
			s0.1-1.2,0.3-1.8c0.2-0.5,0.5-1,0.9-1.4c0.4-0.4,0.9-0.7,1.4-0.9c0.5-0.2,1.1-0.3,1.8-0.3c0.6,0,1.2,0.1,1.8,0.3
			c0.5,0.2,1,0.5,1.4,0.9c0.4,0.4,0.7,0.9,0.9,1.4s0.3,1.1,0.3,1.8s-0.1,1.2-0.3,1.8c-0.2,0.5-0.5,1-0.9,1.4
			c-0.4,0.4-0.9,0.7-1.4,0.9S597.4,303.5,596.8,303.5z M596.8,302.5c0.5,0,0.9-0.1,1.3-0.3c0.4-0.2,0.7-0.4,1-0.7
			c0.3-0.3,0.5-0.7,0.6-1.1c0.2-0.4,0.2-0.9,0.2-1.3s-0.1-0.9-0.2-1.3c-0.2-0.4-0.4-0.8-0.6-1.1c-0.3-0.3-0.6-0.5-1-0.7
			c-0.4-0.2-0.8-0.3-1.3-0.3c-0.5,0-0.9,0.1-1.3,0.3c-0.4,0.2-0.7,0.4-1,0.7s-0.5,0.7-0.6,1.1c-0.2,0.4-0.2,0.8-0.2,1.3
			s0.1,0.9,0.2,1.3c0.2,0.4,0.4,0.8,0.6,1.1c0.3,0.3,0.6,0.5,1,0.7C595.8,302.4,596.3,302.5,596.8,302.5z"/>
		<path class="st1" d="M602.9,294.8h3c0.5,0,1,0.1,1.3,0.2c0.4,0.1,0.6,0.3,0.8,0.6c0.2,0.2,0.3,0.5,0.4,0.8
			c0.1,0.3,0.1,0.6,0.1,0.8c0,0.3,0,0.5-0.1,0.8s-0.2,0.5-0.4,0.7c-0.2,0.2-0.4,0.4-0.7,0.5s-0.5,0.2-0.9,0.3l2.4,3.9h-1.4l-2.2-3.7
			H604v3.7h-1.2V294.8z M604,298.6h1.5c0.2,0,0.4,0,0.7-0.1s0.4-0.1,0.6-0.2s0.3-0.2,0.4-0.4c0.1-0.2,0.2-0.4,0.2-0.7
			s-0.1-0.5-0.2-0.7c-0.1-0.2-0.2-0.3-0.4-0.4c-0.2-0.1-0.4-0.2-0.6-0.2c-0.2,0-0.4-0.1-0.7-0.1H604V298.6z"/>
		<path class="st1" d="M610.2,294.8h1.2v7.4h3.9v1.1h-5.1V294.8z"/>
		<path class="st1" d="M616.2,294.8h3c0.6,0,1.1,0.1,1.6,0.2c0.5,0.1,0.8,0.3,1.2,0.5c0.3,0.2,0.6,0.5,0.8,0.8
			c0.2,0.3,0.4,0.6,0.5,0.9c0.1,0.3,0.2,0.6,0.3,0.9c0.1,0.3,0.1,0.6,0.1,0.9c0,0.5-0.1,1.1-0.3,1.6c-0.2,0.5-0.5,1-0.9,1.4
			c-0.4,0.4-0.9,0.7-1.5,1c-0.6,0.2-1.2,0.4-2,0.4h-2.8V294.8z M617.4,302.2h1.5c0.5,0,1-0.1,1.4-0.2c0.4-0.1,0.8-0.3,1.1-0.6
			s0.6-0.6,0.8-1c0.2-0.4,0.3-0.9,0.3-1.4c0-0.3,0-0.6-0.1-1s-0.3-0.7-0.5-1s-0.6-0.6-1-0.8c-0.4-0.2-1-0.3-1.7-0.3h-1.7V302.2z"/>
		<path class="st1" d="M625.1,302.6c0-0.2,0.1-0.4,0.2-0.6c0.2-0.2,0.3-0.2,0.6-0.2s0.4,0.1,0.6,0.2c0.2,0.2,0.2,0.3,0.2,0.6
			s-0.1,0.4-0.2,0.6c-0.2,0.2-0.3,0.2-0.6,0.2s-0.4-0.1-0.6-0.2C625.2,303,625.1,302.8,625.1,302.6z M626.4,300.9h-1.2v-6h1.2V300.9
			z"/>
	</g>
</g>
<g id="step2">
	<path class="st2" d="M268.1,110.9h96.4c12.1,0,18.7-14.2,10.8-23.5L342.6,49c-5.8-6.8-16.4-6.6-22,0.4l-25.7,32.2
		c-4.2,5.3-11.6,6.9-17.7,3.8l-2.7-1.4c-7.2-3.7-15.9-0.7-19.4,6.5l0,0C250.7,100,257.6,110.9,268.1,110.9z"/>
	<path class="st2" d="M457.8,196h176.5c19.8,0,29.5-24.1,15.3-37.8l0,0c-7.3-7-18.3-8.2-26.9-2.9l-10.6,6.6
		c-8.7,5.4-19.9,4.1-27.2-3.1l-27.5-27.5c-8.6-8.6-22.5-8.6-31.1,0l-22.5,22.5c-7.5,7.5-19.4,8.6-28.1,2.5l-3.9-2.7
		c-10.6-7.4-25.2-4.1-31.7,7.1l-1.3,2.3C430.3,177.8,440.9,196,457.8,196z"/>
	<path class="st3" d="M351,101.3h176.5c19.8,0,29.5-24.1,15.3-37.8l0,0c-7.3-7-18.3-8.2-26.9-2.9l-10.6,6.6
		c-8.7,5.4-19.9,4.1-27.2-3.1l-27.5-27.5c-8.6-8.6-22.5-8.6-31.1,0L397,59.1c-7.5,7.5-19.4,8.6-28.1,2.5l-3.9-2.7
		c-10.6-7.4-25.2-4.1-31.7,7.1l-1.3,2.3C323.5,83,334.1,101.3,351,101.3z"/>
	<path class="st3" d="M595.9,187.8h121c14.2,0,22.7-16,14.6-27.7v0c-4.5-6.6-12.8-9.3-20.4-6.7l-32.7,11.2
		c-6.7,2.3-14.2,0.4-18.9-4.9l-26-28.9c-7.1-7.9-19.4-7.8-26.4,0.1l-24.4,27.5C572.6,169.8,580.7,187.8,595.9,187.8z"/>
</g>
<g id="step1">
	<polygon class="st4" points="152.6,136.8 430.4,136.8 507.5,259.6 229.7,259.6 	"/>
	<rect x="82.7" y="247.8" class="st5" width="262.3" height="191.2"/>
	<polygon class="st6" points="344.8,439 494.5,439 494.5,255.3 419.1,136.8 344.8,255.3 	"/>
	<polygon class="st7" points="430.5,136.8 153.9,136.8 77.1,255.3 353.7,255.3 	"/>
	<rect x="394.8" y="363.6" class="st8" width="57.7" height="75.4"/>
	<rect x="114.7" y="287.9" class="st9" width="37.9" height="75.7"/>
	<rect x="183.9" y="287.9" class="st9" width="37.9" height="75.7"/>
	<rect x="253.8" y="287.9" class="st9" width="37.9" height="75.7"/>
	<line class="st10" x1="25" y1="439" x2="592" y2="439"/>
	<line class="st10" x1="607" y1="439" x2="649" y2="439"/>
	<line class="st10" x1="667" y1="439" x2="688" y2="439"/>
</g>
</svg>
